<?xml version="1.0" encoding="utf-8"?>
<!-- Generator: Adobe Illustrator 27.2.0, SVG Export Plug-In . SVG Version: 6.00 Build 0)  -->
<svg version="1.1" xmlns="http://www.w3.org/2000/svg" xmlns:xlink="http://www.w3.org/1999/xlink" x="0px" y="0px"
	 viewBox="0 0 504.28 220.89" style="enable-background:new 0 0 504.28 220.89;" xml:space="preserve">
<style type="text/css">
	.st0{display:none;fill:#060503;}
	.st1{fill:#BEBEBF;}
	.st2{fill:#AB732B;}
	.st3{fill:#724D1D;}
	.st4{fill:#FFFFFF;}
	.st5{fill:#E8BF0B;}
	.st6{fill:#060503;}
</style>
<g id="Capa_2">
</g>
<g id="Capa_1">
	<path class="st0" d="M300.03,718.48c-0.7-6.84,1.02-13.76-1.03-20.57c-0.45-1.51,0.47-1.86,1.9-2.04
		c7.15-0.93,11.83,1.44,15.33,7.94c0.31,0.57,0.69,1.09,1.32,2.08c0.74-2.86,1.82-5.21,3.92-7c2.2-1.87,4.69-2.42,7.35-1.87
		c4.54,0.94,8.11,6.4,8.12,12.08c0.01,6.66-2.56,10.87-7.23,11.82c-5.69,1.17-9.09-1.26-12.76-9.46c-2.55,6.03-6.71,9.52-13.11,10.1
		c-3.1,0.28-6.12-1.6-9.35,0.12c-0.82,0.44-1.25-1.81-1.46-3.17c-0.46-2.91-0.9-6-5.21-5.63c-2.24,0.19-3.46,0.47-3.88,3.24
		c-0.73,4.9-1.06,4.85-6.68,4.68c3.05-7.21,5.09-14.59,6.83-22.08c0.3-1.29,0.84-2.95,3.25-2.92c2.23,0.02,2.85,1.3,3.42,2.7
		c2.76,6.7,5.4,13.46,8.08,20.19C299.23,718.63,299.63,718.56,300.03,718.48z M304.15,710.98c-0.06,0.01-0.12,0.01-0.18,0.02
		c0,1.49,0.04,2.99-0.01,4.48c-0.05,1.46,0.88,1.55,1.93,1.45c2.9-0.29,6.97-4.97,7.03-8.45c0.06-3.67-2.14-6.04-5.4-7.29
		c-1.31-0.5-3.14-0.84-4.18,0.27c-0.85,0.9-0.29,2.34,0.13,3.66C304.04,706.97,303.95,709.02,304.15,710.98z M331.93,708.89
		c0.91-3.73-1.47-6.49-4.88-6.63c-3.27-0.13-5.14,2.84-5.11,6.49c0.03,3.88,2.84,8.6,5.37,8.08
		C331.21,716.02,332.11,712.86,331.93,708.89z"/>
	<path class="st0" d="M104.69,716.34c1.26,1.59,5.54-1.23,4.63,3.88c3.44-6.55,4.73-13.19,6.8-19.56c0.53-1.63-0.36-4.37,2.87-4.77
		c3.32-0.41,3.62,2.1,4.45,4.03c2.92,6.84,5.73,13.72,8.58,20.61c-4.19,1.23-6.78,0.41-7.3-4.29c-0.24-2.18-1.46-3.4-4.24-3.45
		c-2.89-0.06-3.93,1.48-4.13,3.47c-0.44,4.41-2.93,5.02-6.68,4.78c-4.31-0.29-8.67-0.37-12.97-0.01c-4.52,0.38-7.92-0.55-10.2-4.87
		c-0.53-1-0.99-2.8-3.24-3.19c-0.27,2.66-0.69,5.13,0.44,7.62c-3.59,1.29-4.92,0.17-4.76-3.79c0.28-6.77,0.08-13.56,0.08-20.84
		c2.05,0,4.79,0.08,7.52-0.02c4.13-0.15,7.06,1.75,8.21,5.55c1.21,3.98-0.3,7.1-4.38,8.7c-0.43,0.17-0.73,0.65-1.24,1.12
		c0.99,1.6,2.62,2.72,3.45,4.53c0.47,1.02,1.67,3.05,3.34,2.03c1.75-1.07,5.13-0.81,4.19-4.77c-0.6-2.52-0.08-5.3-0.12-7.96
		c-0.04-1.98,0.73-4.27-2.67-4.6c-1.5-0.14-1.43-2.03-1.28-3.37c0.2-1.88,1.73-1.13,2.7-1.17c2.49-0.11,4.99-0.09,7.49-0.01
		c1.17,0.04,2.7-0.62,2.83,1.66c0.12,2.21-1.06,2.46-2.7,2.44c-0.32,0.01-0.65,0.03-0.99,0.04c-0.3,0.47-0.59,0.94-0.89,1.4
		C103.87,706.46,103.61,711.41,104.69,716.34z M83.06,703.48c0.28,1.41-1.02,3.85,2.29,3.57c2.88-0.25,4.56-1.36,4.72-4.52
		c0.16-3.01-1.8-2.42-3.57-2.6C83.82,699.65,82.29,700.31,83.06,703.48z"/>
	<path class="st0" d="M43.99,721.79c-6.45,0.72-13.32-0.16-20.21-0.83c-2.61-0.25-3.23-2.39-4.42-4.1c-0.97-1.4-2.23-2.6-3.96-4.56
		c-0.43,3.3-0.8,5.77,0.31,8.26c-4.04,1.47-4.92-0.27-4.75-4.17c0.29-6.71,0.08-13.44,0.08-20.44c1.46,0,3.45,0.13,5.41-0.03
		c4.65-0.38,8.69,0.61,10.31,5.45c1.63,4.9-1.38,7.68-5.65,9.67c2.4,3.05,4.29,6.22,7.79,9.02c0.67-6.19-1.38-11.84-0.97-17.61
		c0.46-6.48,0.11-6.51,6.58-6.51c2.16,0,4.33,0.01,6.49,0c1.33,0,2.66,0.12,2.42,1.92c-0.19,1.39-0.87,2.35-2.64,2.13
		c-1.64-0.2-3.32-0.05-4.99-0.04c-1.9,0.01-3.85-0.65-3.88,2.73c-0.03,3.23,1.38,3.34,3.85,3.35c1.46,0.01,3.97-1.42,4.25,1.68
		c0.29,3.25-2.36,3.28-4.31,3.14c-3.48-0.25-2.49,2.02-2.68,3.84c-0.29,2.8,1.58,2.28,3.2,2.24c1-0.02,2,0.06,2.99-0.02
		C42.49,716.68,45.53,716.65,43.99,721.79z M15.11,703.31c0.35,1.34-1.26,3.88,2.1,3.72c2.84-0.14,4.66-1.18,4.89-4.34
		c0.2-2.79-1.43-2.71-3.41-2.78C16.26,699.83,14.2,699.81,15.11,703.31z"/>
	<path class="st0" d="M231.03,711.36c2.8,2.67,4.16,6.23,8.11,8.75c-1.5-6.9-0.86-13.33-1.27-19.71c-0.25-3.89,1.04-4.91,4.67-4.51
		c2.8,0.31,5.66,0.11,8.48,0.04c1.52-0.04,1.98,0.56,1.98,2.06c0,1.55-0.62,2.03-2.06,1.98c-1.83-0.07-3.67,0.06-5.49-0.03
		c-2.17-0.1-3.62-0.08-3.62,3.01c0,3.07,1.43,3.3,3.61,2.98c2.29-0.34,4.35,0.57,4.28,2.64c-0.07,2.13-2.51,2.59-4.49,2.36
		c-2.58-0.3-3.31,0.6-3.37,3.24c-0.07,3.24,1.7,2.95,3.78,2.8c0.99-0.07,2.02,0.11,2.99-0.04c3.58-0.54,6.21,0.06,5.6,5.11
		c-9.74-1.42-21.61,3.94-28.18-9.59c-1.77,3.07-1.12,5.63-0.53,8.19c-3.42,1.17-4.72,0.03-4.61-3.65c0.21-6.89,0.06-13.8,0.06-21.03
		c2.24,0,5.05,0.06,7.86-0.01c4.23-0.11,6.98,2.14,7.94,5.92c0.94,3.72-0.62,6.75-4.41,8.3
		C231.94,710.34,231.63,710.81,231.03,711.36z M225.06,703.96c0.32,0.87-1.08,3.67,2.16,2.97c1.99-0.43,4.68-0.52,4.79-3.71
		c0.11-3.08-1.85-3.07-4.17-3.34C224.61,699.5,224.86,701.37,225.06,703.96z"/>
	<path class="st0" d="M60.79,695.95c4.16,0,8.32,0.03,12.48-0.01c1.59-0.01,2.92-0.11,2.81,2.23c-0.1,2.19-1.5,1.75-2.75,1.78
		c-1.66,0.04-3.34,0.15-4.99-0.02c-2.49-0.26-3.44,0.47-3.42,3.21c0.02,2.66,1.12,3.03,3.28,2.85c1.32-0.11,2.71-0.17,3.97,0.14
		c1.24,0.3,1.01,1.68,0.82,2.53c-0.43,1.91-2.27,2.38-3.74,2.22c-3.31-0.37-3.23,1.43-3.29,3.83c-0.08,3.31,2.15,2.16,3.72,2.22
		c2.16,0.09,4.33,0.06,6.49,0.02c1.62-0.03,1.89,0.89,1.83,2.25c-0.06,1.32,0.25,2.77-1.83,2.75c-4.16-0.03-8.32-0.03-12.48,0.01
		c-1.79,0.02-1.77-1.17-1.64-2.34c0.56-5.31-1.69-10.42-1.03-15.73c0.23-1.82,0.01-3.27-2.46-3.03c-2.12,0.21-4.56-0.33-4.53,3.06
		c0.04,4.66,0.05,9.32-0.01,13.98c-0.02,1.32,0.69,3.05-1.89,3.12c-2.5,0.07-2.08-1.51-2.08-2.95c0-4.66-0.1-9.32,0.09-13.97
		c0.1-2.26-0.31-3.59-2.86-3.17c-2.38,0.4-2.16-1.12-2.28-2.7c-0.17-2.31,1.23-2.28,2.82-2.27
		C52.14,695.97,56.46,695.96,60.79,695.95z"/>
	<path class="st0" d="M2.93,710.77c2.6,3.52,4.81,6.51,7.1,9.61c-7.43,2.69-8.5-4.19-12.16-7.54c-1.39,1.84-0.48,3.87-0.84,5.66
		c-0.17,0.83,2.02,2.56-0.91,2.47c-1.77-0.05-3.14,0.1-3.12-2.47c0.07-7.13-0.06-14.26-0.31-21.38c-0.03-0.83-0.04-1.19,0.65-1.12
		c3.72,0.37,7.49-0.87,11.2,0.74c2.78,1.2,4.32,3.36,4.38,5.95C9,706.43,7.51,709.69,2.93,710.77z M-2.81,703.95
		c0.23,0.81-1.21,3.58,2.02,2.99c2.21-0.4,4.98-0.7,4.84-4.17c-0.11-2.84-2-2.64-4.06-2.89C-3.06,699.51-3.19,701.14-2.81,703.95z"
		/>
	<path class="st0" d="M197.64,720.56c-4.32,1.99-6.71,1.1-7-4.15c-0.14-2.47-2.03-3.66-4.93-3.57c-2.74,0.08-3.56,1.62-3.64,3.58
		c-0.19,4.82-2.99,5.15-6.78,4.26c3.18-7.02,4.66-14.64,7.25-21.9c0.51-1.44,0.56-2.96,3.01-2.95c2.33,0.01,2.78,1.48,3.34,2.85
		C191.89,705.97,194.77,713.33,197.64,720.56z"/>
	<path class="st0" d="M265.95,720.95c-8.04-0.02-12.9-8.31-10.29-16.32c3.14-9.67,10.49-9.95,15.34-7.64
		c1.11,0.53,2.94,1.23,2.24,2.96c-0.81,1.98-2.44,2.48-4.33,1.06c-3.66-2.74-5.8,0-7.67,2.42c-2.45,3.18-2.44,10.12,0.05,12.14
		c2.83,2.29,6.2,1.93,9.15,0.17c1.89-1.12,3.23-2.92-0.4-3.8c-1.85-0.45-2.11-1.77-2.08-3.4c0.04-2.29,1.78-1.72,2.84-1.51
		c2.05,0.39,4.84-1.51,6.08,1.35c1.32,3.03-1.23,9.57-4.2,11.28C270.48,720.91,268.06,721.36,265.95,720.95z"/>
	<path class="st0" d="M197.98,708.97c0-8.67,4.89-13.63,12.68-13.08c1.58,0.11,2.81,0.84,4.07,1.46c1.26,0.63,1.85,1.94,0.93,3.34
		c-0.82,1.24-2.23,2-3.36,0.91c-4.02-3.89-6.28-0.57-8.37,2.08c-2.84,3.59-2.71,8.86,0.02,11.71c2.6,2.71,5.56,1.77,8.59,0.67
		c1.41-0.51,2.34-1.1,2.42-2.65c0.1-2.01-1.44-1.41-2.45-1.44c-2.36-0.07-1.3-1.82-1.5-2.92c-0.25-1.41,0.3-2.34,1.85-2.11
		c2.48,0.37,5.84-1.4,6.96,2.53c0.97,3.4-1.6,9.1-4.76,10.41C205.62,723.79,197.62,718.55,197.98,708.97z"/>
	<path class="st0" d="M346.07,696.94c4.04,0.06,7.62-0.56,9.25,3.77c0.6,1.6,1,2.88-0.61,3.85c-1.54,0.93-2.96,0.46-3.66-1.19
		c-0.4-0.94-0.68-2.09-1.7-2.2c-2.06-0.23-4.64-1.16-5.96,1.02c-1.34,2.22,1.45,3.12,2.56,4.03c2.45,2.02,5.63,3.04,8.04,5.28
		c2.92,2.72,2.83,5.25-0.02,7.93c-4.44,4.19-13.86,3.26-15.57-1.6c-0.43-1.23-1.1-2.85,0.16-3.61c1.19-0.72,3-0.72,3.91,0.91
		c0.56,1.01,1.28,1.61,2.25,2.21c2.5,1.53,5.06,0.05,5.96-1.3c1.31-1.95-1.42-2.82-2.92-3.63c-1.99-1.09-4.06-1.97-5.69-3.65
		c-2.2-2.26-5.15-4.55-3.97-7.93C339.42,697.09,342.95,696.25,346.07,696.94z"/>
	<path class="st0" d="M-23.9,695.98c3.83-0.01,7.66,0,11.49-0.04c1.43-0.02,2.53-0.01,2.52,2.02c-0.01,2.05-1.14,2.02-2.55,1.99
		c-1.83-0.03-3.66,0.04-5.49-0.02c-1.76-0.06-3.28-0.19-3.07,2.45c0.16,2.07,0.42,3.67,2.98,3.56c0.33-0.01,0.69,0.07,1-0.01
		c2.3-0.62,3.83,0.86,3.84,2.58c0.01,1.93-2.12,2.6-3.93,2.39c-2.94-0.35-4.23,0.43-3.92,3.7c0.19,2.03,0.87,2.56,2.71,2.41
		c1.49-0.13,3,0,4.49-0.09c3.22-0.19,6.4-0.4,4.78,5.01c-1.33,0-3.36,0.11-5.39-0.02c-3.11-0.2-8.53,1.1-8.88-0.6
		c-0.87-4.2-3.01-8.77-0.85-13.31C-24.09,704-23.99,699.99-23.9,695.98z"/>
	<path class="st0" d="M-40.12,696.18c4.71-0.07,9.43-0.13,14.14-0.2c0.71,1.34,0.36,2.7,0.05,4.05c-2.08,1.38-4.44,1.02-6.68,0.87
		c-2.62-0.18-3.36,0.73-3.42,3.35c-0.06,2.86,1.42,2.64,3.37,2.77c1.3,0.09,3.59-1.36,3.75,1.62c0.17,3.16-2.25,2.43-3.8,2.23
		c-3.3-0.41-3.57,1.4-3.17,3.81c0.13,0.77,0.86,1.48,0.87,2.23c0.03,2.01,0.92,4.68-2.39,4.98c-2.97,0.27-3.48-2.01-3.49-4.21
		c-0.03-6.97,0.09-13.94,0.15-20.91C-40.38,696.74-40.17,696.54-40.12,696.18z"/>
	<path class="st0" d="M164.49,696.99c-6.05,7.28-11.17,14.18-7.4,23.53c-4.44,1.33-7.02,0.56-6.09-4.58
		c1.16-6.42-1.21-11.69-5.18-16.54c-0.51-0.62-2.5-1.03-1.1-2.61c1.12-1.26,2.4-1.17,3.45-0.12c3.36,3.36,6.5,6.66,10.41,0.42
		C159.04,696.34,161.72,696.99,164.49,696.99z"/>
	<path class="st1" d="M60.07,235.04c0.31-1.35,0.66-2.71-0.05-4.05c0.69,0,1.39,0,2.08,0c-0.09,4.01-0.19,8.01-0.28,12.02
		C59.72,240.68,61.85,237.43,60.07,235.04z"/>
	<path class="st2" d="M190.69,251.34c-1.08-4.93-0.82-9.88-0.19-14.82C191.19,241.46,190.86,246.4,190.69,251.34z"/>
	<path class="st2" d="M199.39,235.11c0.33-0.01,0.66-0.03,0.99-0.04C200.04,235.09,199.71,235.1,199.39,235.11z"/>
	<path class="st3" d="M53.88,231.18c-0.04,0.36-0.25,0.56-0.63,0.6C53.11,231.21,53.26,230.96,53.88,231.18z"/>
	<path class="st4" d="M398.15,245.98c-0.2-1.96-0.11-4.01-0.69-5.86c-0.41-1.32-0.98-2.76-0.13-3.66c1.05-1.1,2.87-0.77,4.18-0.27
		c3.27,1.25,5.47,3.61,5.4,7.29c-0.06,3.48-4.13,8.16-7.03,8.45c-1.05,0.11-1.98,0.01-1.93-1.45c0.05-1.49,0.01-2.99,0.01-4.48
		C398.03,245.99,398.09,245.98,398.15,245.98z"/>
	<path class="st4" d="M425.93,243.89c0.18,3.97-0.72,7.13-4.62,7.94c-2.53,0.53-5.34-4.19-5.37-8.08c-0.03-3.65,1.85-6.62,5.11-6.49
		C424.47,237.4,426.85,240.16,425.93,243.89z"/>
	<path class="st4" d="M177.06,238.48c-0.77-3.16,0.75-3.83,3.44-3.55c1.77,0.18,3.73-0.41,3.57,2.6c-0.16,3.16-1.84,4.27-4.72,4.52
		C176.04,242.33,177.34,239.88,177.06,238.48z"/>
	<path class="st4" d="M109.11,238.31c-0.92-3.5,1.15-3.48,3.58-3.4c1.98,0.06,3.61-0.02,3.41,2.78c-0.23,3.17-2.05,4.21-4.89,4.34
		C107.86,242.2,109.47,239.65,109.11,238.31z"/>
	<path class="st4" d="M319.06,238.96c-0.2-2.59-0.45-4.46,2.78-4.09c2.32,0.27,4.27,0.27,4.17,3.34c-0.11,3.19-2.81,3.28-4.79,3.71
		C317.98,242.63,319.38,239.83,319.06,238.96z"/>
	<path class="st4" d="M91.19,238.95c-0.38-2.81-0.26-4.44,2.81-4.07c2.06,0.25,3.95,0.05,4.06,2.89c0.14,3.47-2.64,3.77-4.84,4.17
		C89.98,242.53,91.42,239.76,91.19,238.95z"/>
	<g>
		<rect x="74" y="160" class="st4" width="42" height="51"/>
		<path class="st5" d="M150.88,214.99c7.13-12.65,14.23-25.33,21.4-37.96c7.52-13.23,15-26.49,22.74-39.59
			c1.63-2.76,0.62-4.68-0.58-6.79c-8.64-15.22-17.34-30.4-25.99-45.62c-5.95-10.48-11.84-21.01-17.76-31.51
			c1.83-0.09,3.65-0.26,5.47-0.26c95.77-0.01,191.54-0.01,287.31-0.01c0.83,0,1.68,0.09,2.5-0.02c2.35-0.31,3.58,0.86,4.68,2.82
			c4.09,7.31,8.33,14.54,12.53,21.79c10.49,18.13,20.99,36.26,31.48,54.39c0.77,1.33,1.17,2.47,0.19,4.06
			c-3.04,4.9-5.86,9.93-8.75,14.92c-11.4,19.67-22.93,39.26-34.06,59.08c-2.09,3.72-4.16,5.03-8.38,5.03
			c-95.77-0.12-191.54-0.09-287.31-0.11C154.53,215.22,152.7,215.07,150.88,214.99z M386.89,125.88c0-8.15,0-16.31,0-24.46
			c0-12.67,0-12.58-12.9-12.41c-2.93,0.04-4.05,0.68-4.03,3.86c0.13,21.8,0.11,43.6,0.02,65.4c-0.01,2.66,0.48,4.18,3.5,3.72
			c1.93-0.29,2.73,0.6,2.57,2.55c-0.1,1.18-0.07,2.36,1.66,2.43c1.76,0.07,3.12-0.56,3.08-2.39c-0.04-2.38,1.16-2.85,3.09-2.58
			c3.05,0.43,3.04-1.47,3.03-3.66C386.86,147.52,386.89,136.7,386.89,125.88z M338.7,125.81c0-8.14,0-16.29,0-24.43
			c0-12.45,0-12.3-12.46-12.38c-3.6-0.02-4.37,1.11-4.34,4.5c0.16,17.78,0.08,35.57,0.08,53.36c0,3.99,0.18,7.99-0.05,11.97
			c-0.28,4.91,8.33,2.12,6.69,7.99c0.49,0.06,1.36,0.26,1.41,0.14c1.55-3.97,5.6-4.69,8.56-6.84c0.56-0.41,0.12-2.22,0.12-3.38
			C338.7,146.42,338.7,136.11,338.7,125.81z M287.03,89.08c-9.64,0-19.28-0.01-28.91,0.01c-1.75,0-3.87-0.5-3.84,2.45
			c0.04,4.82,0.01,9.64,0.01,14.46c0,1.12,0.39,1.99,1.67,1.96c1.07-0.02,2.84,0.48,2.8-1.11c-0.09-3.2,1.91-2.79,3.92-2.86
			c2.03-0.08,3.53,0.04,3.46,2.76c-0.05,1.74,1.67,1.24,2.7,1.24c15.79,0.03,31.57-0.01,47.36,0.06c2.2,0.01,2.9-0.73,2.83-2.87
			c-0.13-3.98-0.23-7.99,0.03-11.96c0.21-3.21-0.75-4.29-4.1-4.21C305.64,89.23,296.33,89.08,287.03,89.08z M286.32,182.98
			c5.99,0,11.98,0.13,17.97-0.04c4.77-0.13,11.04,2.12,13.89-0.89c2.8-2.96,0.57-9.18,0.81-13.96c0.02-0.33-0.04-0.67,0.01-1
			c0.31-2.33-0.59-3.17-3.03-3.15c-15.64,0.09-31.28,0.06-46.91,0.03c-1.85,0-3.35,0.09-3.06,2.57c0.35,3.09-1.95,2.41-3.64,2.42
			c-1.54,0-3.64,0.59-3.38-2.19c0.2-2.19-0.71-3.01-2.87-2.78c-2.38,0.25-1.76,2.03-1.78,3.38c-0.07,3.99,0.13,7.99-0.08,11.97
			c-0.14,2.82,0.78,3.74,3.65,3.69C267.35,182.88,276.83,182.98,286.32,182.98z M219.01,89.08c-5.83,0-11.66-0.14-17.49,0.04
			c-4.77,0.15-11.15-2.18-13.88,0.95c-2.84,3.26-0.54,9.56-0.88,14.52c-0.17,2.52,0.59,3.49,3.3,3.47
			c14.65-0.12,29.31-0.06,43.97-0.06c1.5,0,3.03,0.25,3.02-2.13c-0.02-2.84,2.33-1.87,3.7-1.78c1.5,0.1,4.02-1.37,4.22,1.77
			c0.23,3.58,2.9,1.94,4.5,2.03c2.42,0.14,1.69-2,1.72-3.31c0.09-3.83-0.19-7.68,0.1-11.48c0.26-3.46-1.19-4.14-4.31-4.08
			C237.66,89.19,228.33,89.08,219.01,89.08z M424.94,89.08c-7.81,0-15.63,0.16-23.44-0.07c-4.26-0.12-7.1,0.99-10.07,4.54
			c-3.09,3.7-2.23,7.34-2.44,11.13c-0.07,1.27-0.79,3.22,1.73,3.3c1.69,0.05,3.4,0.31,3.28-2.34c-0.1-2.18,1.73-1.67,2.9-1.58
			c1.34,0.1,3.74-0.89,3.81,1.01c0.16,4.01,2.83,2.89,4.88,2.91c11.3,0.06,22.61,0.13,33.91-0.02c4.76-0.06,11.26,2.17,13.8-0.94
			c2.4-2.93,0.54-9.2,0.92-13.97c0.27-3.52-1.3-4.09-4.34-4.03C441.57,89.19,433.26,89.08,424.94,89.08z M218.51,182.98
			c9.48,0,18.97-0.17,28.44,0.09c3.59,0.1,4.59-1.08,4.34-4.49c-0.28-3.8-0.17-7.65-0.03-11.47c0.09-2.35-0.68-3.18-3.1-3.16
			c-15.14,0.09-30.27,0.06-45.41,0.03c-1.71,0-3.01,0.23-2.73,2.38c0.38,2.92-1.6,2.67-3.47,2.64c-1.8-0.03-3.86,0.41-3.54-2.58
			c0.34-3.09-1.98-2.26-3.66-2.43c-2.48-0.25-2.59,1.29-2.57,3.12c0.05,3.82,0.23,7.67-0.05,11.47c-0.25,3.41,0.74,4.6,4.34,4.5
			C200.21,182.81,209.36,182.98,218.51,182.98z M419.05,182.98c8.5,0,16.99-0.04,25.49,0.02c2.42,0.02,3.9-0.91,5.88-2.54
			c4.67-3.85,3.32-8.63,3.48-13.25c0.05-1.29,0.74-3.15-1.81-3.24c-1.88-0.07-2.13,0.9-2.21,2.44c-0.13,2.58-2.06,2.58-3.98,2.58
			c-1.72,0-3.86,0.02-3.81-2.15c0.08-3.73-2.38-2.84-4.35-2.84c-11.16-0.04-22.32-0.05-33.48,0c-4.63,0.02-10.97-1.56-13.47,0.81
			c-3.17,3-0.6,9.41-1.1,14.32c-0.31,3.06,0.76,4.01,3.87,3.93C402.06,182.84,410.56,182.98,419.05,182.98z M186.56,161.7
			c3.81,0.31,7.42-0.53,8.5,4.48c0.4,1.85,3.65,0.78,3.86-1.81c0.16-2.07,1.03-2.73,2.76-2.36c5.32,1.13,7.74-2.71,10.53-5.96
			c11.29-13.15,22.62-26.28,33.86-39.48c1.63-1.92,4.13-3.38,4.18-5.91c-2.46-1.91-7.19,2.05-7.69-4.02
			c-0.08-0.92-3.27-1.6-3.44,0.97c-0.23,3.51-2.39,3.61-4.82,3.35c-2.93-0.32-4.92,0.77-6.84,3.02
			c-9.13,10.66-18.47,21.14-27.65,31.76C195.44,150.8,191.27,156.02,186.56,161.7z M354.02,182.98c6.99,0,14.02-0.45,20.96,0.15
			c5.26,0.45,8.21-1.97,10.17-6.01c1.86-3.82,0.57-8.09,0.66-12.15c0.02-1.03-1.15-0.94-1.97-0.96c-1.18-0.04-2.02,0.4-1.85,1.69
			c0.33,2.63-0.71,3.59-3.35,3.33c-2.13-0.21-4.68,0.35-4.64-2.95c0.02-2.42-1.56-2.08-3.02-2.08c-11.32-0.01-22.64-0.02-33.96,0.02
			c-1.2,0-2.94-0.52-2.94,1.62c0.01,3.07-1.88,3.38-4.32,3.39c-2.38,0.01-3.92-0.65-3.81-3.34c0.05-1.32-0.71-1.7-1.88-1.68
			c-1.03,0.02-2.15,0.04-2.04,1.46c0.28,3.9-1.4,8.15,0.85,11.63c2.59,4.02,5.9,6.8,11.68,6.08
			C340.96,182.36,347.53,182.98,354.02,182.98z M254.27,135.97c0,6.81-0.01,13.63,0.01,20.44c0.01,2.85-0.95,6.38,4.12,5.64
			c1.77-0.26,1.53,1.27,1.62,2.4c0.12,1.55,0.94,2.5,2.51,2.48c1.62-0.02,2.31-1.11,2.37-2.61c0.05-1.21,0.07-2.57,1.76-2.28
			c4.92,0.86,4.34-2.4,4.28-5.43c-0.07-3.65,0.03-7.31-0.04-10.97c-0.04-2.12,0.95-4.78-2.96-4.89c-1.29-0.04-1.62-8.27-0.29-8.47
			c4.54-0.69,3.1-4,3.23-6.55c0.16-3.15,0.06-6.31,0.03-9.47c-0.03-3.14,1.13-7.11-4.53-6.28c-1.36,0.2-1.48-1.04-1.45-2.07
			c0.04-1.58-1.15-2.43-2.18-1.81c-2.95,1.77-5.73,3.84-8.39,6.03c-0.49,0.41-0.09,1.91-0.1,2.91
			C254.27,122.01,254.27,128.99,254.27,135.97z M421.93,126.27c-3.5,0-7.01,0.2-10.48-0.06c-3.32-0.25-5.07,0.57-4.54,4.28
			c0.25,1.8,0.39,3.84-2.54,3.56c-0.69-0.07-1.21,0.28-1.35,1.1c-0.7,4.1,6.01,4.85,4.28,9.64c-0.36,1.02,1.85,0.76,2.92,0.91
			c0.33,0.05,0.66,0.01,1,0.01c6.82,0,13.65-0.11,20.47,0.05c3,0.07,4.89-0.42,4.28-4.01c-0.28-1.67,0.11-2.96,2.3-2.79
			c1.75,0.13,1.71-1.2,1.66-2.38c-0.05-1.07,0.38-2.45-1.44-2.6c-1.53-0.13-2.73-1.01-2.46-2.53c1.07-6.02-2.97-5.27-6.6-5.2
			C426.93,126.31,424.43,126.27,421.93,126.27z M405.95,121c0-0.66,0.14-1.36-0.02-1.99c-0.91-3.47,3.08-9.71-5.15-9.15
			c-0.86,0.06-0.84-1.28-0.82-2.08c0.04-1.69-1.04-1.8-2.31-1.78c-1.34,0.02-2.85-0.19-2.68,1.88c0.15,1.84-0.83,2.36-2.4,2.18
			c-2.72-0.32-2.87,1.35-2.86,3.39c0.05,7.64-0.08,15.27,0.05,22.91c0.1,6.16,8.7,11.77,14.36,9.52c1.2-0.48,1.86-1.33,1.81-2.66
			c-0.03-0.81,0.08-2.11-0.83-2.05c-3.82,0.24-3.17-2.36-3.14-4.6c0.03-2.18-0.73-4.67,2.81-5.13c1.26-0.16,1.19-1.8,1.18-2.98
			C405.94,125.98,405.95,123.49,405.95,121z M286.64,126.38c-1.99,0-3.98-0.07-5.97,0.01c-3.92,0.16-9.26-1.75-8.44,5.59
			c-5.5,2.74-5.57,5.52-0.04,8.32c-0.97,6.83,3.96,5.19,7.64,5.29c2.15,0.06,4.32,0.11,6.47-0.01c4.75-0.26,11.23,2.13,13.8-0.93
			c2.9-3.46,0.57-9.85,0.92-14.95c0.18-2.66-0.9-3.47-3.44-3.36C293.94,126.51,290.29,126.39,286.64,126.38z M454.16,147.46
			c0-2.66-0.25-5.35,0.05-7.97c0.86-7.62-3.57-14.12-13.68-12.53c-1.36,0.21-2.77,0.03-2.57,2.03c0.12,1.19-0.45,2.45,1.54,3.08
			c2.67,0.85,3.81,7.26,1.44,8.08c-3.93,1.37-2.93,4.06-2.98,6.62c-0.07,3.82,0.1,7.65-0.06,11.46c-0.11,2.57,0.32,4.22,3.41,3.75
			c1.81-0.27,2.8,0.39,2.67,2.44c-0.07,1.03-0.45,2.56,1.46,2.48c1.55-0.06,2.43-0.91,2.5-2.5c0.05-1.15-0.12-2.65,1.63-2.37
			c5.53,0.89,4.66-2.86,4.61-6.11C454.13,153.12,454.16,150.29,454.16,147.46z"/>
		<path class="st6" d="M145.09,57.78c5.13,6.89,8.79,14.65,13.14,22.01c9.87,16.69,19.49,33.53,29.28,50.27
			c1.72,2.94,1.97,5.05-0.09,8.51c-13.39,22.49-26.35,45.23-39.22,68.02c-1.83,3.24-3.67,4.6-7.45,4.47
			c-8.81-0.3-17.64-0.2-26.46-0.04c-3.29,0.06-4.61-1.11-4.27-4.35c0.33-3.12-0.55-6.31,0.53-9.38c0.73-9.53,0.72-19.08,0-28.63
			c-1.52-2.92-4.45-5.72-6.75-6.31c-4.67-1.2-9.9-0.68-14.83-0.17c-2.21,0.23-2.64,3.79-5.01,4.67c-1.18,0.54-0.9,1.63-0.9,2.56
			c0.02,8.86,0.08,17.72,0.12,26.58c-0.05,3.83-0.18,7.66-0.1,11.49c0.05,2.35-0.35,3.64-3.23,3.54
			c-6.66-0.21-13.33-0.16-19.99-0.02c-2.58,0.06-3.68-1.27-4.84-3.28c-13.56-23.5-27.2-46.96-40.88-70.39
			c-1.22-2.08-1.12-3.84,0.04-5.84c11.51-19.83,22.97-39.69,34.47-59.52c2.74-4.73,5.57-9.4,8.36-14.09
			c7.96,0.04,15.92,0.14,23.88,0.12C102.3,57.96,123.7,57.86,145.09,57.78z M149.21,110.18c-0.86-2.78-2.76-3.47-5.57-3.36
			c-4.59,0.19-9.2-0.08-13.8-0.16c-0.23-0.6-0.43-0.51-0.61,0.02c-2.13,0.39-3.17,1.79-4.29,3.62c-2.88,4.7-5.6,4.79-9.94,1.22
			c-1.82-1.5-3.58-3.16-6.21-3.57c-11.14-1.75-22.22-1.54-33.16,1.11c-13.5,3.27-26.44,7.83-35.33,19.42
			c-3.95,5.14-7.93,10.45-7.25,17.61c0.12,1.27,0.42,2.33,1.59,2.79c1.2,0.48,1.74-0.73,2.4-1.37c2.75-2.67,5.86-5.09,8.05-8.16
			c8.86-12.41,37.37-9.22,41.59,9.65c0.67,3.01-1.35,7.44,2.46,8.85c2.94,1.08,6.63-0.12,9.9,0.33c5.1,0.71,6.61-1.13,6.07-6.12
			c-0.97-9.07,3.11-15.43,11.41-19.12c4.51-2.01,7.96-0.32,8.46,4.53c0.35,3.41,1.97,4.58,5.1,4.55c4.5-0.05,9,0.09,13.49-0.05
			c3.52-0.11,5.72-1.46,5.62-5.66c-0.19-8.49,0.01-16.98,0.06-25.47c0.1-0.05,0.2-0.11,0.3-0.16
			C149.45,110.5,149.33,110.34,149.21,110.18z"/>
		<path class="st6" d="M150.88,214.99c1.83,0.08,3.65,0.23,5.48,0.23c95.77,0.01,191.54-0.02,287.31,0.11
			c4.22,0.01,6.29-1.3,8.38-5.03c11.12-19.82,22.66-39.41,34.06-59.08c2.89-4.99,5.72-10.02,8.75-14.92
			c0.98-1.58,0.58-2.73-0.19-4.06c-10.5-18.13-20.99-36.26-31.48-54.39c-4.2-7.25-8.44-14.48-12.53-21.79
			c-1.1-1.96-2.33-3.14-4.68-2.82c-0.82,0.11-1.66,0.02-2.5,0.02c-95.77,0-191.54,0-287.31,0.01c-1.82,0-3.65,0.17-5.47,0.26
			c-2.62-0.7-1.43-2.77-1.57-4.36c0.5-0.04,0.99-0.12,1.49-0.12c100.08-0.01,200.16-0.01,300.25,0c0.33,0,0.66,0.07,0.99,0.11
			c16,27.73,31.95,55.48,48.11,83.12c1.28,2.2,0.28,3.31-0.52,4.71c-9.4,16.43-18.86,32.83-28.31,49.23
			c-5.73,9.93-11.62,19.77-17.13,29.83c-1.52,2.78-2.92,4.01-6.29,4.01c-98.1-0.11-196.2-0.1-294.3-0.05
			c-3.01,0-5.48,0.06-4.18-4.07c0.3-0.21,0.6-0.43,0.9-0.64C150.38,215.18,150.63,215.08,150.88,214.99z"/>
		<path class="st5" d="M98.05,219.96c-13.83,0-27.65-0.13-41.48,0.1c-3.32,0.06-5.15-1.04-6.71-3.78
			c-10.31-18.09-20.72-36.12-31.11-54.17c-4.45-7.73-8.74-15.57-13.47-23.13c-1.9-3.03-2.3-5.28-0.39-8.51
			c9.25-15.64,18.25-31.42,27.32-47.15c5.95-10.31,11.96-20.59,17.73-31c1.39-2.51,2.97-3.51,5.82-3.5
			c28.32,0.08,56.64,0.03,84.95,0.11c1.62,0,4.44-1.3,4.26,2.3c-0.15,3.16-2.67,1.9-4.15,1.91c-26.99,0.08-53.97,0.12-80.96-0.02
			c-3.77-0.02-5.83,1.08-7.78,4.5c-13.98,24.55-28.25,48.93-42.44,73.35c-1.32,2.27-1.51,4.06,0.04,6.7
			c14.39,24.51,28.61,49.13,42.64,73.85c1.66,2.93,3.34,3.89,6.54,3.88c26.49-0.11,52.97-0.06,79.46-0.06c1,0,2.01-0.08,3,0.02
			c1.65,0.16,3.89-0.65,3.72,2.5c-0.17,3.22-2.53,2.03-4.04,2.06c-7.16,0.12-14.32,0.05-21.49,0.05
			C112.37,219.96,105.21,219.96,98.05,219.96z"/>
		<path class="st6" d="M386.89,125.88c0,10.82-0.03,21.63,0.02,32.45c0.01,2.19,0.02,4.09-3.03,3.66c-1.92-0.27-3.13,0.21-3.09,2.58
			c0.03,1.83-1.32,2.46-3.08,2.39c-1.73-0.07-1.76-1.25-1.66-2.43c0.17-1.94-0.63-2.84-2.57-2.55c-3.02,0.46-3.51-1.06-3.5-3.72
			c0.09-21.8,0.11-43.6-0.02-65.4c-0.02-3.18,1.1-3.82,4.03-3.86c12.9-0.18,12.9-0.27,12.9,12.41
			C386.89,109.57,386.89,117.73,386.89,125.88z"/>
		<path class="st6" d="M338.7,125.81c0,10.31,0,20.61,0,30.92c0,1.16,0.45,2.97-0.12,3.38c-2.95,2.15-7.01,2.86-8.56,6.84
			c-0.05,0.12-0.92-0.09-1.41-0.14c1.64-5.87-6.97-3.08-6.69-7.99c0.23-3.98,0.05-7.98,0.05-11.97c0-17.79,0.09-35.57-0.08-53.36
			c-0.03-3.39,0.74-4.52,4.34-4.5c12.46,0.08,12.46-0.07,12.46,12.38C338.7,109.52,338.7,117.66,338.7,125.81z"/>
		<path class="st6" d="M287.03,89.08c9.31,0,18.62,0.15,27.92-0.08c3.35-0.08,4.31,1,4.1,4.21c-0.26,3.97-0.16,7.97-0.03,11.96
			c0.07,2.14-0.63,2.89-2.83,2.87c-15.79-0.08-31.57-0.03-47.36-0.06c-1.03,0-2.75,0.5-2.7-1.24c0.07-2.72-1.43-2.84-3.46-2.76
			c-2.01,0.08-4-0.34-3.92,2.86c0.04,1.59-1.73,1.09-2.8,1.11c-1.28,0.03-1.67-0.84-1.67-1.96c0-4.82,0.03-9.64-0.01-14.46
			c-0.03-2.95,2.08-2.44,3.84-2.45C267.75,89.07,277.39,89.08,287.03,89.08z"/>
		<path class="st6" d="M286.32,182.98c-9.48,0-18.97-0.1-28.45,0.06c-2.87,0.05-3.79-0.88-3.65-3.69c0.2-3.98,0.01-7.98,0.08-11.97
			c0.02-1.35-0.6-3.13,1.78-3.38c2.16-0.23,3.08,0.59,2.87,2.78c-0.26,2.78,1.84,2.19,3.38,2.19c1.69,0,4,0.67,3.64-2.42
			c-0.28-2.48,1.21-2.58,3.06-2.57c15.64,0.03,31.28,0.07,46.91-0.03c2.44-0.01,3.34,0.82,3.03,3.15c-0.04,0.33,0.01,0.67-0.01,1
			c-0.24,4.78,1.99,11-0.81,13.96c-2.84,3.01-9.12,0.76-13.89,0.89C298.3,183.11,292.31,182.98,286.32,182.98z"/>
		<path class="st6" d="M219.01,89.08c9.33,0,18.65,0.11,27.98-0.06c3.11-0.06,4.57,0.62,4.31,4.08c-0.29,3.81-0.01,7.66-0.1,11.48
			c-0.03,1.32,0.7,3.46-1.72,3.31c-1.6-0.09-4.27,1.55-4.5-2.03c-0.2-3.14-2.73-1.67-4.22-1.77c-1.36-0.09-3.72-1.06-3.7,1.78
			c0.02,2.38-1.52,2.13-3.02,2.13c-14.66,0-29.31-0.06-43.97,0.06c-2.71,0.02-3.47-0.95-3.3-3.47c0.34-4.96-1.97-11.25,0.88-14.52
			c2.73-3.13,9.11-0.8,13.88-0.95C207.35,88.94,213.18,89.08,219.01,89.08z"/>
		<path class="st6" d="M424.94,89.08c8.31,0,16.63,0.11,24.94-0.06c3.04-0.06,4.61,0.51,4.34,4.03c-0.37,4.77,1.48,11.04-0.92,13.97
			c-2.55,3.11-9.04,0.88-13.8,0.94c-11.3,0.15-22.61,0.08-33.91,0.02c-2.05-0.01-4.72,1.1-4.88-2.91c-0.07-1.9-2.47-0.91-3.81-1.01
			c-1.16-0.08-3-0.6-2.9,1.58c0.12,2.65-1.59,2.39-3.28,2.34c-2.52-0.08-1.8-2.02-1.73-3.3c0.21-3.79-0.65-7.43,2.44-11.13
			c2.97-3.55,5.81-4.67,10.07-4.54C409.31,89.25,417.13,89.08,424.94,89.08z"/>
		<path class="st6" d="M218.51,182.98c-9.15,0-18.3-0.17-27.44,0.09c-3.6,0.1-4.59-1.08-4.34-4.5c0.28-3.8,0.1-7.65,0.05-11.47
			c-0.02-1.83,0.09-3.37,2.57-3.12c1.68,0.17,4-0.66,3.66,2.43c-0.32,2.99,1.74,2.55,3.54,2.58c1.87,0.03,3.85,0.28,3.47-2.64
			c-0.28-2.14,1.02-2.38,2.73-2.38c15.14,0.03,30.27,0.06,45.41-0.03c2.42-0.01,3.19,0.81,3.1,3.16c-0.15,3.82-0.25,7.67,0.03,11.47
			c0.25,3.41-0.75,4.59-4.34,4.49C237.48,182.81,227.99,182.98,218.51,182.98z"/>
		<path class="st6" d="M419.05,182.98c-8.5,0-16.99-0.14-25.48,0.07c-3.11,0.08-4.18-0.86-3.87-3.93c0.5-4.9-2.07-11.31,1.1-14.32
			c2.5-2.37,8.84-0.79,13.47-0.81c11.16-0.05,22.32-0.04,33.48,0c1.97,0.01,4.43-0.88,4.35,2.84c-0.05,2.17,2.09,2.14,3.81,2.15
			c1.92,0,3.86,0.01,3.98-2.58c0.07-1.54,0.33-2.51,2.21-2.44c2.54,0.09,1.85,1.95,1.81,3.24c-0.17,4.62,1.19,9.4-3.48,13.25
			c-1.98,1.63-3.46,2.56-5.88,2.54C436.04,182.94,427.55,182.98,419.05,182.98z"/>
		<path class="st6" d="M186.56,161.7c4.71-5.68,8.88-10.91,13.25-15.96c9.18-10.62,18.52-21.1,27.65-31.76
			c1.92-2.24,3.9-3.33,6.84-3.02c2.43,0.26,4.58,0.17,4.82-3.35c0.17-2.57,3.36-1.89,3.44-0.97c0.5,6.06,5.23,2.11,7.69,4.02
			c-0.05,2.53-2.54,3.99-4.18,5.91c-11.24,13.2-22.56,26.33-33.86,39.48c-2.79,3.25-5.2,7.1-10.53,5.96
			c-1.73-0.37-2.6,0.29-2.76,2.36c-0.2,2.58-3.46,3.66-3.86,1.81C193.98,161.17,190.37,162.02,186.56,161.7z"/>
		<path class="st6" d="M354.02,182.98c-6.49,0-13.06-0.62-19.45,0.18c-5.78,0.73-9.09-2.06-11.68-6.08
			c-2.25-3.48-0.56-7.73-0.85-11.63c-0.1-1.42,1.01-1.44,2.04-1.46c1.17-0.02,1.93,0.36,1.88,1.68c-0.11,2.69,1.43,3.34,3.81,3.34
			c2.43-0.01,4.33-0.32,4.32-3.39c-0.01-2.14,1.74-1.61,2.94-1.62c11.32-0.04,22.64-0.03,33.96-0.02c1.46,0,3.04-0.34,3.02,2.08
			c-0.03,3.3,2.51,2.73,4.64,2.95c2.63,0.26,3.68-0.7,3.35-3.33c-0.16-1.29,0.68-1.73,1.85-1.69c0.82,0.03,1.99-0.06,1.97,0.96
			c-0.09,4.06,1.2,8.33-0.66,12.15c-1.97,4.04-4.91,6.46-10.17,6.01C368.05,182.53,361.02,182.98,354.02,182.98z"/>
		<path class="st6" d="M254.27,135.97c0-6.98,0-13.96,0-20.94c0-1-0.4-2.5,0.1-2.91c2.65-2.19,5.44-4.26,8.39-6.03
			c1.03-0.62,2.22,0.23,2.18,1.81c-0.02,1.03,0.09,2.27,1.45,2.07c5.66-0.83,4.5,3.15,4.53,6.28c0.03,3.16,0.13,6.32-0.03,9.47
			c-0.13,2.54,1.31,5.85-3.23,6.55c-1.33,0.2-1,8.43,0.29,8.47c3.91,0.11,2.92,2.77,2.96,4.89c0.07,3.66-0.04,7.31,0.04,10.97
			c0.06,3.04,0.64,6.29-4.28,5.43c-1.68-0.29-1.71,1.06-1.76,2.28c-0.06,1.5-0.75,2.59-2.37,2.61c-1.57,0.02-2.4-0.93-2.51-2.48
			c-0.08-1.12,0.15-2.66-1.62-2.4c-5.08,0.74-4.11-2.79-4.12-5.64C254.26,149.6,254.27,142.79,254.27,135.97z"/>
		<path class="st6" d="M421.93,126.27c2.5,0,4.99,0.04,7.49-0.01c3.63-0.07,7.67-0.82,6.6,5.2c-0.27,1.52,0.93,2.4,2.46,2.53
			c1.82,0.15,1.39,1.53,1.44,2.6c0.05,1.18,0.09,2.51-1.66,2.38c-2.19-0.17-2.58,1.13-2.3,2.79c0.61,3.59-1.28,4.08-4.28,4.01
			c-6.82-0.16-13.65-0.05-20.47-0.05c-0.33,0-0.67,0.04-1-0.01c-1.08-0.15-3.29,0.11-2.92-0.91c1.72-4.8-4.99-5.54-4.28-9.64
			c0.14-0.82,0.66-1.17,1.35-1.1c2.94,0.28,2.8-1.76,2.54-3.56c-0.52-3.72,1.22-4.53,4.54-4.28
			C414.93,126.47,418.44,126.27,421.93,126.27z"/>
		<path class="st6" d="M405.95,121c0,2.49-0.01,4.98,0,7.47c0.01,1.18,0.07,2.82-1.18,2.98c-3.54,0.46-2.78,2.95-2.81,5.13
			c-0.03,2.24-0.68,4.83,3.14,4.6c0.91-0.06,0.81,1.24,0.83,2.05c0.04,1.33-0.61,2.18-1.81,2.66c-5.66,2.24-14.26-3.37-14.36-9.52
			c-0.13-7.63,0-15.27-0.05-22.91c-0.01-2.04,0.14-3.71,2.86-3.39c1.57,0.18,2.55-0.34,2.4-2.18c-0.17-2.06,1.35-1.85,2.68-1.88
			c1.26-0.02,2.35,0.09,2.31,1.78c-0.02,0.81-0.03,2.14,0.82,2.08c8.23-0.56,4.24,5.68,5.15,9.15
			C406.09,119.64,405.95,120.34,405.95,121z"/>
		<path class="st6" d="M286.64,126.39c3.65,0,7.3,0.12,10.94-0.04c2.53-0.11,3.62,0.69,3.44,3.36c-0.35,5.1,1.98,11.5-0.92,14.95
			c-2.57,3.07-9.05,0.67-13.8,0.93c-2.15,0.12-4.31,0.07-6.47,0.01c-3.68-0.1-8.61,1.54-7.64-5.29c-5.52-2.8-5.46-5.57,0.04-8.32
			c-0.82-7.34,4.52-5.43,8.44-5.59C282.66,126.32,284.65,126.38,286.64,126.39z"/>
		<path class="st6" d="M454.16,147.46c0,2.83-0.03,5.65,0.01,8.48c0.05,3.25,0.92,7-4.61,6.11c-1.75-0.28-1.58,1.22-1.63,2.37
			c-0.07,1.59-0.95,2.44-2.5,2.5c-1.91,0.08-1.53-1.46-1.46-2.48c0.14-2.05-0.86-2.71-2.67-2.44c-3.09,0.47-3.52-1.18-3.41-3.75
			c0.17-3.82-0.01-7.64,0.06-11.46c0.05-2.56-0.95-5.25,2.98-6.62c2.38-0.83,1.23-7.24-1.44-8.08c-1.98-0.63-1.42-1.89-1.54-3.08
			c-0.2-2,1.2-1.82,2.57-2.03c10.11-1.59,14.55,4.91,13.68,12.53C453.91,142.12,454.16,144.81,454.16,147.46z"/>
		<path class="st4" d="M129.84,106.66c4.6,0.08,9.21,0.34,13.8,0.16c2.81-0.11,4.71,0.58,5.57,3.35c-0.2,0.23-0.19,0.45,0.05,0.65
			c-0.04,8.49-0.25,16.99-0.06,25.47c0.1,4.2-2.1,5.55-5.62,5.66c-4.49,0.14-8.99,0-13.49,0.05c-3.14,0.03-4.75-1.14-5.1-4.55
			c-0.5-4.85-3.96-6.54-8.46-4.53c-8.29,3.69-12.38,10.06-11.41,19.12c0.54,4.99-0.98,6.83-6.07,6.12c-3.27-0.46-6.97,0.75-9.9-0.33
			c-3.81-1.4-1.78-5.83-2.46-8.85c-4.22-18.87-32.73-22.05-41.59-9.65c-2.2,3.07-5.31,5.5-8.05,8.16c-0.66,0.64-1.19,1.85-2.4,1.37
			c-1.17-0.47-1.47-1.53-1.59-2.79c-0.68-7.16,3.3-12.46,7.25-17.61c8.89-11.58,21.84-16.15,35.33-19.42
			c10.94-2.65,22.02-2.86,33.16-1.11c2.62,0.41,4.38,2.07,6.21,3.57c4.34,3.58,7.07,3.48,9.94-1.22c1.12-1.83,2.16-3.22,4.28-3.62
			c0,0,0.31,0.17,0.31,0.17L129.84,106.66z"/>
		<path class="st3" d="M129.84,106.66l-0.3,0.19c0,0-0.32-0.17-0.31-0.17C129.41,106.15,129.61,106.06,129.84,106.66z"/>
		<path class="st3" d="M141.26,110.82c-0.23-0.2-0.25-0.42-0.05-0.65c0.12,0.16,0.23,0.33,0.35,0.49
			C141.46,110.72,141.36,110.77,141.26,110.82z"/>
		<g>
			<g>
				<g>
					<path d="M58.02,10.42h32.13v7.32h-19.8v6.56h18.53v7.36H70.35v12.49H58.02V10.42z"/>
					<path d="M127.71,30.5h-19.57v6.32h21.85l-1.4,7.32H96.02V10.42h32.52v7.32h-20.4v5.43h19.57V30.5z"/>
					<path d="M148.05,31.4v12.74h-12.22V10.42h21.29c10.12,0,15.02,4.25,15.02,9.34c0,4.66-3.47,7.04-6.45,8
						c2.71,0.74,5.6,2.99,5.6,8.7v1.4c0,2.1,0.08,4.82,0.56,6.28h-12c-0.73-1.45-0.91-3.9-0.91-7.36v-0.87
						c0-2.91-0.89-4.51-6.44-4.51H148.05z M148.05,24.51h5.83c4.19,0,5.72-1.37,5.72-3.64c0-2.25-1.81-3.57-5.66-3.57h-5.88V24.51z"
						/>
					<path d="M191.17,31.4v12.74h-12.22V10.42h21.29c10.12,0,15.02,4.25,15.02,9.34c0,4.66-3.47,7.04-6.45,8
						c2.71,0.74,5.6,2.99,5.6,8.7v1.4c0,2.1,0.08,4.82,0.56,6.28h-12c-0.73-1.45-0.91-3.9-0.91-7.36v-0.87
						c0-2.91-0.89-4.51-6.44-4.51H191.17z M191.17,24.51h5.83c4.19,0,5.72-1.37,5.72-3.64c0-2.25-1.81-3.57-5.66-3.57h-5.88V24.51z"
						/>
					<path d="M253.75,30.5h-19.57v6.32h21.85l-1.4,7.32h-32.56V10.42h32.52v7.32h-20.4v5.43h19.57V30.5z"/>
					<path d="M270.44,17.74h-12.28v-7.32h37.07v7.32h-12.18v26.4h-12.61V17.74z"/>
					<path d="M332.06,30.5h-19.57v6.32h21.85l-1.4,7.32h-32.56V10.42h32.52v7.32h-20.4v5.43h19.57V30.5z"/>
					<path d="M352.41,31.4v12.74h-12.22V10.42h21.29c10.12,0,15.02,4.25,15.02,9.34c0,4.66-3.47,7.04-6.45,8
						c2.71,0.74,5.6,2.99,5.6,8.7v1.4c0,2.1,0.08,4.82,0.56,6.28h-12c-0.73-1.45-0.91-3.9-0.91-7.36v-0.87
						c0-2.91-0.89-4.51-6.44-4.51H352.41z M352.41,24.51h5.83c4.19,0,5.72-1.37,5.72-3.64c0-2.25-1.82-3.57-5.66-3.57h-5.88V24.51z"
						/>
					<path d="M395.93,10.42v33.72H383.3V10.42H395.93z"/>
					<path d="M415.44,37.58l-2.49,6.56h-12.26l13.58-33.72h16.3l14.12,33.72h-13.15l-2.61-6.56H415.44z M426.71,30.26
						c-2.02-5.3-3.67-10.01-4.64-13.3h-0.17c-1,3.63-2.64,8.45-4.38,13.3H426.71z"/>
				</g>
			</g>
		</g>
	</g>
</g>
</svg>
